<?xml version="1.0" encoding="UTF-8"?>
<svg version="1.1" xmlns="http://www.w3.org/2000/svg" width="48" height="48">
<path d="M0 0 C15.84 0 31.68 0 48 0 C48 15.84 48 31.68 48 48 C32.16 48 16.32 48 0 48 C0 32.16 0 16.32 0 0 Z " fill="#F5F24D" transform="translate(0,0)"/>
<path d="M0 0 C6.34507042 -0.35915493 6.34507042 -0.35915493 8.9375 1.0625 C10.55479605 4.01168691 10.18630138 6.70867559 10 10 C8.68 10 7.36 10 6 10 C6 11.32 6 12.64 6 14 C-0.34507042 14.35915493 -0.34507042 14.35915493 -2.9375 12.9375 C-4.55479605 9.98831309 -4.18630138 7.29132441 -4 4 C-2.68 4 -1.36 4 0 4 C0 2.68 0 1.36 0 0 Z " fill="#6D6C22" transform="translate(30,26)"/>
<path d="M0 0 C1.65 0 3.3 0 5 0 C5 1.65 5 3.3 5 5 C5.7425 4.9175 6.485 4.835 7.25 4.75 C10 5 10 5 12.3125 6.6875 C14.28544288 9.39116247 14.36337162 10.72965541 14 14 C12.68 14 11.36 14 10 14 C10 12.35 10 10.7 10 9 C8.02 9 6.04 9 4 9 C4 10.65 4 12.3 4 14 C2.68 14 1.36 14 0 14 C0 9.38 0 4.76 0 0 Z " fill="#161607" transform="translate(8,8)"/>
<path d="M0 0 C5.36842105 -0.35789474 5.36842105 -0.35789474 7.875 1.0625 C9.58196395 4.00227124 9.18799766 6.67870803 9 10 C10.65 10 12.3 10 14 10 C14 11.32 14 12.64 14 14 C9.38 14 4.76 14 0 14 C0 12.68 0 11.36 0 10 C1.65 10 3.3 10 5 10 C5 8.02 5 6.04 5 4 C3.35 4 1.7 4 0 4 C0 2.68 0 1.36 0 0 Z " fill="#0D0D04" transform="translate(26,8)"/>
<path d="M0 0 C1.65 0 3.3 0 5 0 C5 2.97 5 5.94 5 9 C7.97 9 10.94 9 14 9 C14 10.65 14 12.3 14 14 C12.22992286 14.08114106 10.45877902 14.13925505 8.6875 14.1875 C7.70136719 14.22230469 6.71523437 14.25710937 5.69921875 14.29296875 C3 14 3 14 1.15625 12.84375 C-0.46489067 10.25868785 -0.29419981 8.3356612 -0.1875 5.3125 C-0.16042969 4.31863281 -0.13335938 3.32476563 -0.10546875 2.30078125 C-0.07066406 1.54152344 -0.03585938 0.78226563 0 0 Z " fill="#27260C" transform="translate(8,26)"/>
<path d="M0 0 C1.32 0 2.64 0 4 0 C4 1.98 4 3.96 4 6 C5.65 6 7.3 6 9 6 C9 6.99 9 7.98 9 9 C5.625 9.125 5.625 9.125 2 9 C0 7 0 7 -0.125 3.375 C-0.08375 2.26125 -0.0425 1.1475 0 0 Z " fill="#080802" transform="translate(26,30)"/>
<path d="M0 0 C3.375 -0.125 3.375 -0.125 7 0 C9 2 9 2 9.125 5.625 C9.08375 6.73875 9.0425 7.8525 9 9 C8.01 9 7.02 9 6 9 C6 7.35 6 5.7 6 4 C4.02 4 2.04 4 0 4 C0 2.68 0 1.36 0 0 Z " fill="#080802" transform="translate(30,26)"/>
<path d="M0 0 C1.65 0 3.3 0 5 0 C5 1.65 5 3.3 5 5 C3.35 5 1.7 5 0 5 C0 3.35 0 1.7 0 0 Z " fill="#E2DF47" transform="translate(30,30)"/>
<path d="M0 0 C1.32 0 2.64 0 4 0 C4 1.65 4 3.3 4 5 C2.68 5 1.36 5 0 5 C0 3.35 0 1.7 0 0 Z " fill="#161607" transform="translate(18,8)"/>
</svg>
