<?xml version="1.0" encoding="UTF-8"?>
<svg version="1.1" xmlns="http://www.w3.org/2000/svg" width="900" height="900">
<path d="M0 0 C297 0 594 0 900 0 C900 297 900 594 900 900 C603 900 306 900 0 900 C0 603 0 306 0 0 Z " fill="#8E48FE" transform="translate(0,0)"/>
<path d="M0 0 C1.51376221 -0.0012085 1.51376221 -0.0012085 3.05810547 -0.00244141 C10.05558631 0.04920475 16.97324228 0.51751882 23.9375 1.1875 C23.9375 1.8475 23.9375 2.5075 23.9375 3.1875 C24.71867187 3.19007813 25.49984375 3.19265625 26.3046875 3.1953125 C35.25198298 3.49421992 43.65488489 5.04149229 52.375 7.0625 C53.48794434 7.31918457 54.60088867 7.57586914 55.74755859 7.84033203 C61.66820853 9.25619766 67.2960015 10.91433623 72.9375 13.1875 C74.30992345 13.69357391 75.68367111 14.19606843 77.05859375 14.6953125 C102.26886257 24.05945868 124.15014205 38.28952557 144.42089844 55.875 C145.82754205 57.09234 147.2453551 58.296741 148.6640625 59.5 C153.99715561 64.12311477 158.49163599 69.04699429 162.86328125 74.5859375 C164.60872494 76.77513806 166.41068354 78.82411004 168.3125 80.875 C201.02691909 117.98163277 215.83468146 168.93502891 221.67236328 216.93579102 C222.05816484 220.08956185 222.46019511 223.24097602 222.86328125 226.39257812 C224.64404501 240.65524956 225.61959548 254.81972797 225.9375 269.1875 C225.96074341 270.2288913 225.98398682 271.27028259 226.00793457 272.3432312 C226.58738113 300.81761437 226.45053635 328.92419688 222.24145508 357.12554932 C221.92895063 359.24549669 221.63144543 361.36709603 221.33789062 363.48974609 C219.24233858 378.59956674 216.81101812 393.48302456 212.51513672 408.14648438 C211.74012133 410.88491574 211.08026554 413.64578096 210.42041016 416.41381836 C208.72814149 423.5054336 206.61438537 430.38566862 204.2421875 437.28125 C201.89857761 444.17296127 199.94925666 451.19343535 197.9375 458.1875 C197.2775 458.1875 196.6175 458.1875 195.9375 458.1875 C195.81632812 458.88101562 195.69515625 459.57453125 195.5703125 460.2890625 C192.17179459 475.85511368 183.90310208 490.44177472 176.765625 504.55078125 C175.70821881 506.6425366 174.67662488 508.7374312 173.671875 510.85546875 C167.95419175 522.87468318 160.55467756 534.06751226 151.9375 544.1875 C151.12925781 545.17878906 150.32101562 546.17007813 149.48828125 547.19140625 C136.79046206 562.68109506 122.54258379 575.94418956 105.9375 587.1875 C105.26847656 587.66574219 104.59945313 588.14398437 103.91015625 588.63671875 C91.95685014 597.01091593 78.97504814 603.24957395 64.9375 607.1875 C63.83792969 607.50589844 62.73835938 607.82429687 61.60546875 608.15234375 C48.93360655 611.47736684 37.48023572 610.68779834 24.9375 607.1875 C24.9375 606.5275 24.9375 605.8675 24.9375 605.1875 C24.20144531 605.0740625 23.46539062 604.960625 22.70703125 604.84375 C13.18411652 602.58726245 6.13430602 594.04997649 0.98828125 586.22265625 C-7.0625 572.8384434 -7.0625 572.8384434 -7.0625 566.1875 C-7.50940186 566.50912109 -7.95630371 566.83074219 -8.41674805 567.16210938 C-34.7488982 586.06274909 -34.7488982 586.06274909 -41.0625 587.1875 C-41.0625 587.8475 -41.0625 588.5075 -41.0625 589.1875 C-43.66380627 590.3609316 -46.26818508 591.52642508 -48.875 592.6875 C-49.61298828 593.02136719 -50.35097656 593.35523438 -51.11132812 593.69921875 C-51.82353516 594.01503906 -52.53574219 594.33085938 -53.26953125 594.65625 C-53.9241333 594.94951172 -54.57873535 595.24277344 -55.25317383 595.54492188 C-57.0625 596.1875 -57.0625 596.1875 -60.0625 596.1875 C-60.0625 596.8475 -60.0625 597.5075 -60.0625 598.1875 C-93.5085343 608.95715367 -125.84919198 615.73103488 -159.0625 600.1875 C-175.20297888 591.72308434 -186.34717645 577.73918935 -191.93359375 560.49926758 C-194.05580328 552.63925775 -194.48575516 545.30363797 -194.375 537.1875 C-194.37822266 536.00671875 -194.38144531 534.8259375 -194.38476562 533.609375 C-194.32557213 523.83706701 -193.45939901 514.40945175 -190.0625 505.1875 C-189.59758515 503.64205652 -189.14288869 502.09352249 -188.6953125 500.54296875 C-188.44910156 499.70056641 -188.20289063 498.85816406 -187.94921875 497.99023438 C-187.44516212 496.25963993 -186.94509842 494.52787703 -186.44921875 492.79492188 C-184.93686477 487.65056754 -183.13462063 482.83655739 -180.82763672 477.9934082 C-179.93246165 476.20746303 -179.93246165 476.20746303 -180.0625 474.1875 C-180.87332031 474.51363281 -181.68414062 474.83976562 -182.51953125 475.17578125 C-188.85067546 477.67433525 -195.10856782 479.87964813 -201.703125 481.56640625 C-204.22386223 482.19558433 -204.22386223 482.19558433 -207.25 483.3125 C-214.85728792 485.6792118 -222.98302454 485.43208283 -230.875 485.5 C-231.98681641 485.52900391 -233.09863281 485.55800781 -234.24414062 485.58789062 C-245.51941146 485.67365922 -254.22478641 482.80482491 -262.8359375 475.46484375 C-266.41822851 471.80085137 -268.80021693 467.75701216 -271.0625 463.1875 C-271.38992188 462.54554688 -271.71734375 461.90359375 -272.0546875 461.2421875 C-273.93704344 457.24442204 -274.70881527 453.57319063 -275.0625 449.1875 C-275.13855469 448.29675781 -275.21460938 447.40601563 -275.29296875 446.48828125 C-275.61131372 439.6309585 -274.67616863 433.57159051 -272.875 427 C-272.58085205 425.91464966 -272.58085205 425.91464966 -272.28076172 424.80737305 C-269.19317337 414.31123139 -263.3140716 404.90972695 -257.9921875 395.42382812 C-255.39995074 390.76140229 -253.09544229 386.12782826 -251.0625 381.1875 C-250.4064714 379.74291006 -249.74596755 378.30034766 -249.08203125 376.859375 C-239.63830255 355.99885669 -233.64974487 334.63448233 -230.58837891 311.96679688 C-230.10279605 308.47709277 -229.5792808 304.99616384 -229.04008484 301.51449585 C-226.03413287 282.08594122 -223.64730056 262.69448203 -221.92251587 243.10910034 C-219.34790903 214.04052409 -214.45950229 186.72891645 -206.4375 158.6875 C-206.20770447 157.88290344 -205.97790894 157.07830688 -205.7411499 156.24932861 C-203.37376047 148.0420542 -200.86361965 140.15604708 -197.14306641 132.44091797 C-195.74683406 129.52920885 -194.65166985 126.5380059 -193.5625 123.5 C-191.87034432 119.02448546 -190.0224743 115.13299106 -187.3515625 111.17578125 C-185.90000072 108.93685717 -184.71738762 106.62426182 -183.5 104.25 C-179.09024402 96.07831302 -173.56471952 88.64682134 -168.0625 81.1875 C-167.37800781 80.25292969 -166.69351563 79.31835938 -165.98828125 78.35546875 C-160.7284649 71.58065459 -154.65760723 65.58195914 -148.625 59.5 C-147.72330078 58.58887451 -146.82160156 57.67774902 -145.89257812 56.73901367 C-145.04244141 55.89314697 -144.19230469 55.04728027 -143.31640625 54.17578125 C-142.54627197 53.40790283 -141.7761377 52.64002441 -140.98266602 51.84887695 C-139.0625 50.1875 -139.0625 50.1875 -137.0625 50.1875 C-137.0625 49.5275 -137.0625 48.8675 -137.0625 48.1875 C-135.61645508 46.89404297 -135.61645508 46.89404297 -133.58203125 45.4296875 C-132.83671143 44.89045654 -132.0913916 44.35122559 -131.32348633 43.7956543 C-130.51548584 43.22371338 -129.70748535 42.65177246 -128.875 42.0625 C-128.05217529 41.47573486 -127.22935059 40.88896973 -126.3815918 40.28442383 C-119.77345984 35.6110386 -113.08391963 31.22200252 -106.0625 27.1875 C-104.41701172 26.22457031 -104.41701172 26.22457031 -102.73828125 25.2421875 C-84.69979005 14.9816457 -64.4038962 7.57465061 -43.84375 4.6796875 C-40.95458707 4.22481737 -40.95458707 4.22481737 -37.8046875 3.203125 C-33.42545812 2.01460763 -29.19616941 1.48050241 -24.6875 1.0625 C-23.78845947 0.97830811 -22.88941895 0.89411621 -21.96313477 0.80737305 C-14.64085002 0.18993648 -7.3464834 0.00552616 0 0 Z " fill="#FEFEFE" transform="translate(474.0625,144.8125)"/>
<path d="M0 0 C10.6794574 6.28203376 15.96262812 12.89177487 19.5625 24.9375 C23.87642951 42.48052747 23.08701952 63.64942155 14.875 79.9375 C10.32713689 87.18090508 4.60741914 92.68071804 -3.8125 94.875 C-12.33140615 96.21553853 -18.42081236 95.06938684 -25.43359375 89.99609375 C-35.06083953 81.41219481 -37.71821138 69.26477897 -38.8125 56.875 C-39.71271176 39.59161113 -40.10308922 19.37624678 -27.8203125 5.6484375 C-19.75692538 -1.74553635 -10.51735152 -3.10348078 0 0 Z " fill="#030303" transform="translate(487.8125,316.125)"/>
<path d="M0 0 C8.96505629 5.22311975 13.17831432 14.16834026 16.3984375 23.73046875 C17.76123726 29.57252679 17.5436264 35.58748287 17.50683594 41.55249023 C17.49617077 43.60626121 17.50674606 45.65914717 17.51953125 47.71289062 C17.53673002 62.41761728 15.750977 75.4518428 5.30859375 86.546875 C-1.40683581 92.28297108 -8.94624626 94.2345379 -17.671875 93.8515625 C-24.4045696 92.66544774 -28.83707284 88.73479285 -33.06640625 83.55859375 C-37.55729379 77.0161587 -40.44877497 70.29958404 -39.75390625 62.30859375 C-40.41390625 62.30859375 -41.07390625 62.30859375 -41.75390625 62.30859375 C-41.87979551 57.759537 -41.96928958 53.21154598 -42.02856445 48.66113281 C-42.05333443 47.12123915 -42.08716142 45.58145805 -42.13110352 44.04199219 C-42.5460866 29.10260116 -40.60423313 15.46730845 -30.50390625 3.68359375 C-21.47745323 -4.11197931 -10.8732196 -5.02777674 0 0 Z " fill="#030303" transform="translate(594.75390625,317.69140625)"/>
<path d="M0 0 C0.33 0 0.66 0 1 0 C1.30684878 9.15432195 0.63043515 17.9909532 -1 27 C-1.33 27.33 -1.66 27.66 -2 28 C-2.39148761 29.51165654 -2.73972457 31.03469632 -3.0625 32.5625 C-3.23910156 33.38878906 -3.41570313 34.21507812 -3.59765625 35.06640625 C-3.73042969 35.70449219 -3.86320313 36.34257813 -4 37 C-5.45138473 33.06493868 -4.6602741 29.40911416 -4.00390625 25.390625 C-3.89151108 24.66381531 -3.77911591 23.93700562 -3.66331482 23.18817139 C-3.30374929 20.87422359 -2.93328407 18.56217392 -2.5625 16.25 C-2.31633582 14.67849826 -2.07088484 13.10688463 -1.82617188 11.53515625 C-1.22570636 7.68875831 -0.6154618 3.84402568 0 0 Z " fill="#9561EB" transform="translate(696,498)"/>
<path d="M0 0 C0.66 0.33 1.32 0.66 2 1 C0.07462497 3.63847689 -1.44738217 5.68635204 -4.3125 7.3125 C-7.64984074 9.40803953 -9.76129078 12.00271156 -12.29296875 14.9921875 C-14.41719037 17.49069989 -16.57921261 19.78670867 -19 22 C-19.66 22 -20.32 22 -21 22 C-21 22.66 -21 23.32 -21 24 C-22.32 24.33 -23.64 24.66 -25 25 C-21.0060348 20.09312847 -16.6959047 15.55729437 -12.25 11.0625 C-11.67096924 10.47057861 -11.09193848 9.87865723 -10.49536133 9.26879883 C-9.03589071 7.80590875 -7.52187506 6.39785485 -6 5 C-5.34 5 -4.68 5 -4 5 C-4 4.34 -4 3.68 -4 3 C-2 1.375 -2 1.375 0 0 Z " fill="#FBEDFE" transform="translate(341,190)"/>
<path d="M0 0 C1.11323838 3.83986571 0.8178154 5.36436921 -1 9 C-2.25874261 11.10060261 -3.55247928 13.17194855 -4.87890625 15.23046875 C-6.04331625 17.0025431 -6.04331625 17.0025431 -7 19 C-7.66 19 -8.32 19 -9 19 C-7.39369175 14.75707468 -5.4231838 10.72974893 -3.375 6.6875 C-3.05015625 6.04232422 -2.7253125 5.39714844 -2.390625 4.73242188 C-1.59558044 3.15402459 -0.79804366 1.57688306 0 0 Z " fill="#955FEA" transform="translate(650,649)"/>
<path d="M0 0 C-0.61919078 1.46080933 -1.24556692 2.91857455 -1.875 4.375 C-2.22304688 5.18710937 -2.57109375 5.99921875 -2.9296875 6.8359375 C-4 9 -4 9 -6 11 C-5.125 5.25 -5.125 5.25 -4 3 C-5.0725 3.350625 -6.145 3.70125 -7.25 4.0625 C-10.78720743 4.94680186 -11.74811124 5.02880551 -15 4 C-12.87875034 3.13656176 -10.75286928 2.28449352 -8.625 1.4375 C-6.84996094 0.72400391 -6.84996094 0.72400391 -5.0390625 -0.00390625 C-2 -1 -2 -1 0 0 Z " fill="#905FE3" transform="translate(296,619)"/>
<path d="M0 0 C0.66 0.99 1.32 1.98 2 3 C1.34 3 0.68 3 0 3 C-0.04125 3.928125 -0.0825 4.85625 -0.125 5.8125 C-0.87928898 11.45226069 -4.15169541 16.18314238 -7 21 C-7.66 21 -8.32 21 -9 21 C-7.24584045 16.50828842 -5.31542936 12.1007936 -3.375 7.6875 C-2.88773438 6.57665039 -2.88773438 6.57665039 -2.390625 5.44335938 C-1.59446849 3.62859087 -0.79733283 1.81425198 0 0 Z " fill="#9461EA" transform="translate(660,628)"/>
<path d="M0 0 C0.33 0.66 0.66 1.32 1 2 C-1.48163901 4.61225159 -4.02025145 6.96504977 -7 9 C-8.32 8.67 -9.64 8.34 -11 8 C-7.37 5.36 -3.74 2.72 0 0 Z " fill="#905DEB" transform="translate(461,714)"/>
<path d="M0 0 C-1.55575978 0.84584998 -3.1199612 1.67618399 -4.6875 2.5 C-5.99267578 3.19609375 -5.99267578 3.19609375 -7.32421875 3.90625 C-10.11788829 5.04818792 -12.01629113 5.21504208 -15 5 C-12.30932731 3.20621821 -9.91421743 2.02686042 -6.9375 0.8125 C-5.62072266 0.26529297 -5.62072266 0.26529297 -4.27734375 -0.29296875 C-2 -1 -2 -1 0 0 Z " fill="#E2C7FC" transform="translate(408,156)"/>
<path d="M0 0 C4.98012761 1.50912958 8.24259942 4.55661849 12 8 C11.34 8.66 10.68 9.32 10 10 C6.66666667 6.66666667 3.33333333 3.33333333 0 0 Z " fill="#9561E8" transform="translate(613,196)"/>
<path d="M0 0 C0.66 0.33 1.32 0.66 2 1 C-0.62652025 4.59930552 -2.93963643 7.07666989 -7 9 C-7.66 8.67 -8.32 8.34 -9 8 C-7.625 6.5 -7.625 6.5 -6 5 C-5.34 5 -4.68 5 -4 5 C-4 4.34 -4 3.68 -4 3 C-2 1.375 -2 1.375 0 0 Z " fill="#F0DBFE" transform="translate(341,190)"/>
<path d="M0 0 C0.66 0 1.32 0 2 0 C0.66666667 3.33333333 -0.66666667 6.66666667 -2 10 C-2.66 9.34 -3.32 8.68 -4 8 C-3.625 5.875 -3.625 5.875 -3 4 C-2.34 4 -1.68 4 -1 4 C-0.67 2.68 -0.34 1.36 0 0 Z " fill="#9560ED" transform="translate(213,542)"/>
<path d="M0 0 C1.17539996 0.92652701 2.34010577 1.86663387 3.5 2.8125 C4.1496875 3.33457031 4.799375 3.85664062 5.46875 4.39453125 C7 6 7 6 7 9 C3.26115668 6.34345343 1.35021826 4.41889613 0 0 Z " fill="#9360EC" transform="translate(294,728)"/>
<path d="M0 0 C0.93423645 3.01031744 1.04449911 3.86650268 0 7 C0.66 7 1.32 7 2 7 C2 7.66 2 8.32 2 9 C0.02 9.99 0.02 9.99 -2 11 C-1.125 3.375 -1.125 3.375 0 0 Z " fill="#E4CDFC" transform="translate(264,317)"/>
<path d="M0 0 C0.33 0 0.66 0 1 0 C1.36923077 7.50769231 1.36923077 7.50769231 -0.5 10 C-0.995 10.33 -1.49 10.66 -2 11 C-1.125 3.375 -1.125 3.375 0 0 Z " fill="#DDC4FC" transform="translate(238,484)"/>
</svg>
